<svg xmlns="http://www.w3.org/2000/svg" width="18" height="18"><path d="m8.755 5.617-5.736 4.83v5.214a.498.509 0 0 0 .498.51l3.486-.01a.498.509 0 0 0 .495-.509v-3.044a.498.509 0 0 1 .498-.51h1.991a.498.509 0 0 1 .498.51v3.042a.498.509 0 0 0 .498.51l3.485.01a.498.509 0 0 0 .498-.509v-5.217L9.231 5.617a.38.388 0 0 0-.476 0zm9.061 3.284-2.6-2.192V2.302a.373.382 0 0 0-.374-.381h-1.743a.373.382 0 0 0-.373.381v2.31L9.94 2.27a1.493 1.527 0 0 0-1.897 0L.167 8.9a.373.382 0 0 0-.05.537l.794.986a.373.382 0 0 0 .526.052l7.318-6.163a.38.388 0 0 1 .476 0l7.319 6.163a.373.382 0 0 0 .526-.05l.793-.987a.373.382 0 0 0-.053-.538z"/></svg>